<svg width="161" height="13" viewBox="0 0 161 13" fill="none" xmlns="http://www.w3.org/2000/svg">
<path d="M158.884 6.08891C158.183 5.86762 157.515 5.72463 156.897 5.66675C155.505 5.53568 149.205 5.06246 149.205 5.06246V2.36441H160.189V0C160.189 0 153.224 0.0238313 151.344 0C151.298 0 151.254 0 151.208 0C150.064 0 149.071 0 148.048 0.510672C147.038 1.01453 146.473 1.7516 146.286 2.81891C146.217 3.22064 146.193 3.64279 146.215 4.07516C146.295 5.55441 147.04 6.49404 148.392 6.92982C148.89 7.08983 149.285 7.18685 149.643 7.2192C151.037 7.34516 158.005 7.87456 158.005 7.87456V10.6288H146.446V12.6289C146.47 12.6323 146.422 12.9983 146.446 13H154.57C154.821 13 155.073 13 155.325 12.9966C156.632 12.9864 157.618 12.8638 158.521 12.6C159.942 12.1846 160.7 11.4339 160.911 10.2339C160.985 9.81 161.013 9.3538 160.991 8.91463C160.918 7.45921 160.208 6.50766 158.881 6.08891" fill="currentColor"/>
<path d="M48.2067 0.27925C47.6908 0.27925 47.2733 0.275845 46.8914 0.267334H46.8744C46.759 0.267334 46.7437 0.267334 46.6809 0.406918C45.347 3.35349 43.9825 6.34603 42.6638 9.23984L42.0545 10.5761C42.0171 10.6578 41.973 10.7378 41.9187 10.8382C41.8932 10.8859 41.8644 10.9387 41.8321 11L41.5148 11.5991L41.1431 10.811C41.0973 10.714 41.0599 10.6357 41.0243 10.5557L40.3488 9.04408C39.0539 6.14857 37.7589 3.25306 36.4708 0.354148C36.4453 0.296272 36.4301 0.277547 36.4301 0.277547C36.4267 0.277547 36.4063 0.270738 36.3503 0.270738C35.8462 0.277547 35.3422 0.27925 34.8381 0.27925H33.3633L34.4681 2.69132C35.9922 6.0192 37.5146 9.34708 39.0335 12.6767C39.042 12.6954 39.0488 12.7073 39.0539 12.7141C39.0658 12.7158 39.0861 12.7175 39.1252 12.7175C39.9093 12.7141 40.6933 12.7107 41.4791 12.7107C42.2649 12.7107 43.0219 12.7124 43.7924 12.7192H43.7975C43.8501 12.7192 43.8704 12.7124 43.8738 12.7124C43.8738 12.7124 43.8925 12.692 43.9214 12.6324C45.42 9.41517 46.9253 6.20134 48.429 2.98751L49.6985 0.275845C49.4728 0.275845 49.2454 0.275845 49.0196 0.277547C48.7498 0.277547 48.4816 0.27925 48.2118 0.27925" fill="currentColor"/>
<path d="M84.3078 0.292725H81.5566V12.6918H93.8713V10.3496H84.3078V0.292725Z" fill="currentColor"/>
<path d="M74.3879 0.30989C74.3794 0.291165 74.3726 0.27925 74.3692 0.272441C74.3574 0.272441 74.337 0.269036 74.298 0.269036C73.5105 0.272441 72.7213 0.275845 71.9338 0.275845C71.1463 0.275845 70.3979 0.274143 69.624 0.267334C69.573 0.267334 69.5493 0.272441 69.5493 0.272441C69.5459 0.275845 69.5306 0.292868 69.5018 0.352446C68.0032 3.56968 66.4978 6.78351 64.9941 9.99563L63.7246 12.709C63.9486 12.709 64.1744 12.709 64.3984 12.7073C64.6665 12.7073 64.9347 12.7056 65.2011 12.7056C65.7205 12.7056 66.1414 12.709 66.5266 12.7175H66.5436C66.659 12.7175 66.6743 12.7175 66.7388 12.5779C67.0205 11.9566 67.3022 11.337 67.584 10.7157L68.0371 9.71817H75.6523L76.1224 10.7719C76.399 11.3915 76.6757 12.0111 76.9506 12.6324C76.9761 12.6903 76.9913 12.709 76.9913 12.709C76.9947 12.709 77.0151 12.7158 77.0711 12.7158C77.5684 12.709 78.0674 12.7073 78.5646 12.7073H80.0564L78.9091 10.2033C77.4004 6.90607 75.8899 3.60883 74.3862 0.30989H74.3879ZM68.957 7.68739L71.3635 2.40875C71.4009 2.32704 71.445 2.24704 71.4993 2.14661C71.5248 2.09894 71.5536 2.04617 71.5859 1.98489L71.9033 1.38571L72.2732 2.17044C72.3208 2.27087 72.3581 2.34917 72.3937 2.42918L74.7443 7.68569H68.957V7.68739Z" fill="currentColor"/>
<path d="M109.602 2.51415V0.294434H98.4688V2.51415H109.602Z" fill="currentColor"/>
<path d="M98.4626 7.49661H106.626V5.46754H98.4677V2.51416H95.6895V12.6918H109.84V10.45H98.4626V7.49661Z" fill="currentColor"/>
<path d="M67.3781 0.291016H59.9564V2.61457H57.168V12.6901H59.9666V2.61457H66.2563L67.3781 0.291016Z" fill="currentColor"/>
<path d="M124.021 11.3557L117.241 0.393313C117.174 0.286072 117.145 0.270752 117.013 0.270752C116.136 0.275859 115.258 0.277561 114.381 0.277561H111.881V12.6971H114.51V1.79596H115.06L115.267 2.10066C115.314 2.17045 115.363 2.24024 115.408 2.31174L116.237 3.63948C117.393 5.48982 118.546 7.34015 119.701 9.19219L121.898 12.6937C121.923 12.7141 121.952 12.7192 122.006 12.7192H122.011C122.906 12.7141 123.8 12.7124 124.694 12.7124H127.184V0.303095H124.537V11.3557H124.021Z" fill="currentColor"/>
<path d="M18.2383 10.4875H21.0165V7.53411H29.1748V5.50334H21.0098V2.54995H32.3893V0.308105H18.2383V10.4875Z" fill="currentColor"/>
<path d="M32.151 12.7056V10.4875H21.0176V12.7056H32.151Z" fill="currentColor"/>
<path d="M53.6213 0.294366V0.277344H50.7344V2.61452L57.168 2.61457L57.1683 0.294366H53.6213Z" fill="currentColor"/>
<path d="M135.708 0.302979H129.238V2.62654H135.708V12.6936H138.501V2.59589H135.708V0.302979Z" fill="currentColor"/>
<path d="M144.953 0.302979H138.5V2.59589H144.953V0.302979Z" fill="currentColor"/>
<path d="M11.4338 0.279053H2.77826V2.66219H12.9426V10.3359H2.77826V2.66219H0V12.719H11.4338C14.0101 12.719 16.0976 10.6253 16.0976 8.04126V4.95851C16.0976 2.37451 14.0101 0.280755 11.4338 0.280755" fill="currentColor"/>
</svg>
