<svg width="417" height="99" viewBox="0 0 417 99" fill="none" xmlns="http://www.w3.org/2000/svg">
<path d="M62.64 63.68C63.2 66.16 63.48 68.52 63.48 70.76C63.48 75.32 62.32 79.12 60 82.16C55.2 90.24 47.2 95.2 36 97.04C33.44 97.68 30.84 98 28.2 98C25.08 98 22.28 97.52 19.8 96.56C14.04 94.4 11.08 90 10.92 83.36C10.84 79.2 12.16 76.16 14.88 74.24C17.68 72.24 22.56 71 29.52 70.52C31.76 69.72 33.08 68.8 33.48 67.76C33.56 66.8 33.04 65.56 31.92 64.04C28.24 60.76 24.56 57.48 20.88 54.2C16.72 50.12 13.96 46.16 12.6 42.32C11.8 40.08 11.4 37.72 11.4 35.24C11.4 31.32 12.92 25.64 15.96 18.2C21.72 9.96 30.24 4.72 41.52 2.47999C45.6 2.16 48.4 2 49.92 2C54 2 57.36 2.68 60 4.03999C61.28 5.4 61.92 7.36 61.92 9.92C61.92 10.64 61.68 12.72 61.2 16.16C59.12 24.08 56 29.44 51.84 32.24C51.12 32.24 50.08 32.04 48.72 31.64C47.36 31.24 46.32 31.04 45.6 31.04C45.2 31.04 44.8 31.08 44.4 31.16C42.48 30.92 40.96 31.32 39.84 32.36C38.88 32.92 38.48 34.08 38.64 35.84C39.12 37.28 40.24 38.72 42 40.16C43.52 41.28 45.04 42.4 46.56 43.52C55.84 50.72 61.2 57.44 62.64 63.68ZM10.92 79.04C10.76 79.36 10.68 79.64 10.68 79.88C10.12 80.28 9.8 81.12 9.72 82.4C9.72 83.68 9.24 84.36 8.28 84.44C6.28 85.24 4.84 85.64 3.96 85.64C3.16 85.64 2.48 85.44 1.92 85.04C1.12 84.64 0.64 84 0.48 83.12C0.56 82.16 1 81.48 1.8 81.08C0.6 79.4 0 78.08 0 77.12C0 75.6 0.68 74.96 2.04 75.2C2.2 75.28 2.44 75.36 2.76 75.44C2.84 74.88 3.08 74.12 3.48 73.16C4.84 71.72 6.04 71.64 7.08 72.92C7.64 73.48 8.2 74.52 8.76 76.04C9.32 77.56 10.04 78.56 10.92 79.04ZM59.52 6.56C59.28 6.08 58.68 6 57.72 6.31999C53.56 10.72 51 16.88 50.04 24.8C50.04 25.68 50.08 26.6 50.16 27.56C50.32 28.52 50.64 29.28 51.12 29.84C52.4 29.68 53.8 28.4 55.32 26C58.44 19.76 60 14.44 60 10.04C60 8.12 59.84 6.96 59.52 6.56ZM61.08 68.96C60.36 62.16 57.64 56.52 52.92 52.04C51.64 50.44 48.6 48.04 43.8 44.84C39.8 42.12 37.32 39.36 36.36 36.56C35.88 33.84 36.4 31.84 37.92 30.56C39.84 29.04 42.28 28.28 45.24 28.28C46.36 28.28 47.4 28.4 48.36 28.64C48.28 28.08 48.16 27.4 48 26.6C47.76 20.28 50.24 13.24 55.44 5.48C53.2 5.31999 52.04 5.23999 51.96 5.23999C42.6 4.68 33.72 7.04 25.32 12.32C21.24 14.88 18.12 19.16 15.96 25.16C14.52 29.08 13.8 32.56 13.8 35.6C13.8 38.4 14.44 40.88 15.72 43.04C15.72 43.2 15.88 43.44 16.2 43.76C16.6 44.08 16.72 44.36 16.56 44.6C16.48 44.52 16.48 44.48 16.56 44.48C18.72 48.56 22.96 53.16 29.28 58.28C33.68 61.72 35.88 64.72 35.88 67.28C35.88 67.76 35.8 68.28 35.64 68.84C33.96 71.72 30.32 73.36 24.72 73.76C19.52 74.16 16.2 75.8 14.76 78.68C14.12 79.88 13.8 81.24 13.8 82.76C13.8 85.8 14.84 88.6 16.92 91.16C18.76 93.48 21.96 94.84 26.52 95.24C38.12 95 47.16 92 53.64 86.24C58.68 81.68 61.16 75.92 61.08 68.96ZM8.4 79.76C7.84 79.2 7.32 78.36 6.84 77.24C6.28 75.8 5.88 74.88 5.64 74.48L4.92 74.96C4.92 76.72 5.68 78.04 7.2 78.92C7.28 79.16 7.24 79.36 7.08 79.52C6.76 79.52 6.6 79.48 6.6 79.4C5.88 79 5.12 78.6 4.32 78.2C3.6 77.72 2.92 77.52 2.28 77.6L2.4 78.56C3.2 80 4.6 80.72 6.6 80.72C6.84 80.88 6.96 81 6.96 81.08C6.96 81.16 6.8 81.32 6.48 81.56C6.24 81.72 6.16 81.88 6.24 82.04C5.68 82.12 5.04 82.24 4.32 82.4C3.68 82.48 3.28 82.72 3.12 83.12C3.52 83.52 4 83.72 4.56 83.72C4.48 83.72 5.56 83.44 7.8 82.88C7.64 82.24 7.84 81.2 8.4 79.76ZM58.8 8.36C58.88 10.12 58.4 11.4 57.36 12.2C57.04 12.04 56.88 11.28 56.88 9.92C57.12 8.88 57.52 8.16 58.08 7.76C58.16 7.76 58.4 7.96 58.8 8.36ZM58.44 14.6C58.36 15.4 57.96 16.48 57.24 17.84C56.92 17.68 56.68 17.36 56.52 16.88C56.36 16.08 56.72 15.16 57.6 14.12C57.92 13.96 58.2 14.12 58.44 14.6ZM56.16 12.32C56.4 15.36 55.64 17.52 53.88 18.8C53.64 18.8 53.32 18.52 52.92 17.96C52.68 15.56 53.48 13.48 55.32 11.72C55.8 11.72 56.08 11.92 56.16 12.32ZM55.68 19.88C56 22.2 55.32 24.16 53.64 25.76C53.08 26 52.68 25.8 52.44 25.16C52.28 24.2 52.68 22.6 53.64 20.36C54.68 19.64 55.36 19.48 55.68 19.88ZM55.44 12.8C54.08 14.48 53.52 16.2 53.76 17.96C55.12 16.84 55.68 15.12 55.44 12.8ZM54.96 20.72C53.68 22 53.12 23.36 53.28 24.8C54.4 23.6 54.96 22.24 54.96 20.72ZM146.963 80.36C146.323 83.72 144.163 86.2 140.483 87.8C138.803 88.6 136.963 89 134.963 89C131.443 89 128.523 88 126.203 86C123.883 83.92 122.203 80.92 121.163 77C119.003 77 115.803 76.92 111.563 76.76C108.523 76.68 103.683 76.76 97.0425 77C96.7225 78.68 96.1225 81.08 95.2425 84.2C93.6425 86.76 91.0825 88.36 87.5625 89C85.5625 89.48 82.4825 89.64 78.3225 89.48C74.7225 88.84 72.8025 88.48 72.5625 88.4C70.4825 87.84 68.7625 87 67.4025 85.88C66.6825 84.68 66.4425 83.72 66.6825 83C69.3225 74.68 71.7625 67.48 74.0025 61.4L80.4825 42.92C80.5625 42.76 82.1625 37.52 85.2825 27.2C87.2025 20.96 89.2025 15.96 91.2825 12.2C94.9625 5.48 100.283 2.12 107.243 2.12C111.643 2.12 115.363 3.44 118.403 6.08L120.923 8.24C122.043 9.51999 123.683 12.56 125.843 17.36L131.243 34.52C133.243 40.68 135.243 45.84 137.243 50C137.963 50.16 138.963 50.56 140.243 51.2C141.363 52.96 141.683 56.64 141.203 62.24C142.483 65.12 143.763 68 145.043 70.88C146.403 74.32 147.043 77.48 146.963 80.36ZM142.043 92C142.203 93.36 141.843 94.08 140.963 94.16C140.643 94.16 140.123 94.08 139.403 93.92C139.163 94.56 138.883 95.24 138.563 95.96C138.323 96.6 137.883 97 137.243 97.16C136.683 97.32 136.243 96.92 135.923 95.96V95.84C134.243 97.28 133.203 98 132.803 98C132.563 98 132.243 97.92 131.843 97.76C131.523 97.52 131.243 96.84 131.003 95.72C131.403 93.08 132.603 91.04 134.603 89.6C135.003 89.6 135.443 89.76 135.923 90.08C136.163 90.24 136.403 90.32 136.643 90.32C136.963 90.32 137.403 90.16 137.963 89.84C138.603 89.44 139.083 89.24 139.403 89.24C139.803 89.24 140.163 89.44 140.483 89.84L142.043 92ZM140.003 57.8C139.923 56.76 139.803 55.68 139.643 54.56C139.563 53.44 139.123 52.64 138.323 52.16C137.763 52.24 137.043 52.76 136.163 53.72C133.363 57.64 131.643 62 131.003 66.8C130.443 70.8 130.763 73.76 131.963 75.68C132.763 75.76 133.483 75.4 134.123 74.6C134.763 73.8 135.363 73 135.923 72.2C138.323 67.08 139.683 62.28 140.003 57.8ZM112.643 50.72C111.603 48.08 110.043 44.16 107.963 38.96L104.603 49.76C106.283 50.24 108.963 50.56 112.643 50.72ZM135.443 50.48C133.123 44.16 130.803 38.04 128.483 32.12C127.283 28.44 126.043 24.76 124.763 21.08C123.323 16.76 121.763 13.24 120.083 10.52C117.123 6.44 113.483 4.36 109.163 4.28C108.443 4.12 107.723 4.03999 107.003 4.03999C103.403 4.03999 99.6425 5.96 95.7225 9.8C92.8425 13.56 90.0825 19.56 87.4425 27.8L81.5625 46.04C80.6825 48.6 78.6025 54.24 75.3225 62.96C72.6025 69.84 70.6825 75.56 69.5625 80.12C70.6825 79.72 72.4025 79.2 74.7225 78.56C75.9225 78.4 77.1625 78.32 78.4425 78.32C83.8825 78.32 88.7625 79.56 93.0825 82.04C95.0825 73.96 96.8825 67.24 98.4825 61.88L106.403 36.44L108.083 31.88H108.323C108.563 32.04 108.683 32.64 108.683 33.68C110.043 32.64 111.043 31.4 111.683 29.96C111.603 29.56 111.803 29.12 112.283 28.64C112.523 29.04 112.643 29.44 112.643 29.84C112.643 30.24 112.043 31.56 110.843 33.8C112.123 33.32 113.323 32.48 114.443 31.28C114.603 31.28 114.763 31.32 114.923 31.4C115.083 31.72 114.963 32.2 114.563 32.84C114.323 33.8 113.603 34.64 112.403 35.36C111.523 36 110.603 36.64 109.643 37.28C110.683 40.32 112.363 44.84 114.683 50.84C119.003 51.16 125.923 51.04 135.443 50.48ZM144.203 82.04C144.523 81 144.683 79.92 144.683 78.8C144.683 76.96 144.123 74.72 143.003 72.08C141.563 68.56 140.763 66.36 140.603 65.48C139.723 67.64 138.883 69.76 138.083 71.84C137.043 74.4 135.643 76.24 133.883 77.36C131.643 77.36 128.163 77.28 123.443 77.12C123.763 78.32 124.443 80 125.483 82.16C127.163 85.28 130.643 86.88 135.923 86.96C139.523 87.04 142.283 85.4 144.203 82.04ZM130.163 74.48V74.24V74.48ZM134.483 52.76C121.203 53.32 111.003 53.08 103.883 52.04C101.403 59.24 99.2825 66.76 97.5225 74.6L121.763 74.84L129.443 74.6C128.963 72.12 128.883 70.04 129.203 68.36C130.243 61.32 132.003 56.12 134.483 52.76ZM140.723 92C140.323 91.28 139.843 90.8 139.283 90.56C137.523 91.52 135.963 91.72 134.603 91.16C133.403 93 132.963 94.48 133.283 95.6C133.843 95.36 134.403 94.8 134.963 93.92C135.603 92.96 136.083 92.36 136.403 92.12C136.403 92.76 136.603 93.72 137.003 95C137.323 94.68 137.523 94.24 137.603 93.68C137.523 93.2 137.523 92.48 137.603 91.52C138.003 91.52 138.443 91.76 138.923 92.24C139.403 92.72 139.883 92.92 140.363 92.84C140.683 92.6 140.803 92.32 140.723 92ZM92.1225 84.92C92.2025 84.2 92.1225 83.8 91.8825 83.72C88.7625 81.48 84.0025 80.36 77.6025 80.36C75.9225 80.52 74.2425 80.72 72.5625 80.96C70.6425 81.36 69.2025 82.12 68.2425 83.24L69.2025 84.32C68.9625 84.24 68.6825 84.16 68.3625 84.08C69.0025 85.04 70.1225 85.8 71.7225 86.36C76.0425 87.48 80.0025 87.92 83.6025 87.68C87.6025 87.36 90.4425 86.44 92.1225 84.92ZM139.283 56.48C139.363 58.48 139.003 59.72 138.203 60.2C138.043 59.88 137.763 59.52 137.363 59.12C137.203 58.08 137.483 56.96 138.203 55.76C138.923 55.84 139.283 56.08 139.283 56.48ZM137.003 55.16C136.923 56.12 136.883 56.6 136.883 56.6C136.723 57.16 136.403 57.52 135.923 57.68C135.763 57.6 135.563 57.4 135.323 57.08C135.243 55.88 135.603 55.04 136.403 54.56C136.643 54.56 136.843 54.76 137.003 55.16ZM136.883 60.44C137.123 63.24 136.403 65.28 134.723 66.56C134.083 66.88 133.603 66.48 133.283 65.36C132.883 63.2 133.563 61.24 135.323 59.48C136.283 59.48 136.803 59.8 136.883 60.44ZM137.363 66.56C137.363 67.6 137.083 68.28 136.523 68.6C136.283 68.68 135.963 68.32 135.563 67.52C135.563 67.04 135.763 66.4 136.163 65.6C136.963 65.76 137.363 66.08 137.363 66.56ZM134.723 68.84C135.123 70.76 134.643 72.4 133.283 73.76C132.723 73.92 132.243 73.64 131.843 72.92C131.363 71.24 131.643 69.64 132.682 68.12C133.003 67.8 133.403 67.72 133.883 67.88C134.363 68.04 134.643 68.36 134.723 68.84ZM90.4425 83.96C90.6825 84.36 90.4025 84.76 89.6025 85.16C87.1225 85.72 85.2425 85.16 83.9625 83.48C83.9625 83.24 84.5625 82.8 85.7625 82.16C88.1625 82.24 89.7225 82.84 90.4425 83.96ZM82.4025 82.4C82.4025 83.04 82.1225 83.4 81.5625 83.48C80.1225 83.64 79.0825 83.52 78.4425 83.12C78.0425 82.48 78.3225 82 79.2825 81.68C80.8025 81.68 81.8425 81.92 82.4025 82.4ZM85.0425 86C85.0425 86.32 84.7625 86.56 84.2025 86.72C83.0825 86.8 82.2825 86.52 81.8025 85.88C81.9625 85.48 82.3225 85.2 82.8825 85.04C83.5225 85.04 84.2425 85.36 85.0425 86ZM80.6025 85.04C80.7625 85.52 80.4425 85.88 79.6425 86.12C78.4425 86.12 77.7625 85.88 77.6025 85.4C77.6825 85 77.9625 84.72 78.4425 84.56C79.2425 84.48 79.9625 84.64 80.6025 85.04ZM76.8825 83.96C76.3225 85 74.6425 85.36 71.8425 85.04C71.1225 84.8 70.6025 84.48 70.2825 84.08C70.1225 83.44 70.4025 82.92 71.1225 82.52C73.9225 81.88 75.8425 82.24 76.8825 83.6V83.96ZM135.803 62.84C135.963 61.56 135.963 60.72 135.803 60.32C134.523 62.4 134.003 64.12 134.243 65.48C134.643 65.08 135.163 64.2 135.803 62.84ZM133.883 68.84H133.643C132.763 69.88 132.403 71.2 132.563 72.8C133.683 71.6 134.123 70.28 133.883 68.84ZM89.4825 84.08C87.8825 82.96 86.4025 82.64 85.0425 83.12C85.2825 83.6 85.7625 83.92 86.4825 84.08C87.2825 84.4 88.2825 84.4 89.4825 84.08ZM75.9225 83.84C75.2825 83.52 74.0425 83.28 72.2025 83.12C71.6425 83.52 71.3225 83.68 71.2425 83.6C72.7625 84.72 74.3225 84.8 75.9225 83.84ZM170.138 6.31999C169.258 7.12 168.258 8.44 167.138 10.28C166.738 10.68 166.178 10.8 165.458 10.64C164.658 10.4 164.098 10.4 163.778 10.64C163.458 10.72 163.058 10.56 162.578 10.16H162.818C162.818 9.28 162.338 8.28 161.378 7.16C160.098 5.64 159.378 4.76 159.218 4.51999C158.978 3.96 159.378 3.32 160.418 2.6C161.458 2.36 162.498 2.6 163.538 3.32C163.938 2.67999 164.298 2.44 164.618 2.6L164.858 2.83999C165.898 1.56 166.778 1.44 167.498 2.47999L167.618 3.68C168.338 3.44 169.018 3.52 169.658 3.92C170.698 4.56 170.858 5.36 170.138 6.31999ZM204.218 90.56C203.658 91.92 203.098 93.32 202.538 94.76C201.658 96.36 200.458 97.24 198.938 97.4C198.298 97.24 197.938 97.2 197.858 97.28C196.258 97.04 194.498 96.92 192.578 96.92C190.578 96.92 187.098 97.12 182.138 97.52C177.738 97.92 174.258 98.08 171.698 98C163.538 97.52 157.818 94.84 154.538 89.96C153.578 87.8 153.098 84.96 153.098 81.44L152.978 65.48L152.138 46.28C152.058 44.92 151.818 41.88 151.418 37.16C151.018 33.48 150.817 30.48 150.817 28.16C150.817 26.72 150.897 25.36 151.058 24.08C151.218 21.68 152.098 19.4 153.698 17.24C155.298 15 157.218 13.4 159.458 12.44C161.218 11.72 163.098 11.36 165.098 11.36C168.378 11.36 171.058 12.28 173.138 14.12C175.858 16.6 177.498 20.16 178.058 24.8C178.138 25.68 178.178 29.8 178.178 37.16C178.178 39.96 177.978 44.52 177.578 50.84C177.258 57.16 177.098 61.88 177.098 65C177.098 67.48 177.178 69.76 177.338 71.84C177.658 71.92 178.138 72.16 178.778 72.56C184.858 72.48 192.138 71.6 200.618 69.92C201.418 69.92 201.938 69.96 202.178 70.04C202.818 70.2 203.258 70.52 203.498 71C204.858 73.4 205.538 76.36 205.538 79.88C205.538 82.2 205.098 85.76 204.218 90.56ZM169.058 5.36C168.978 5.27999 168.658 5.19999 168.098 5.11999C167.538 5.36 166.778 6.28 165.818 7.87999L165.458 7.64C165.378 7.08 165.498 6.35999 165.818 5.48C166.138 4.51999 166.298 3.87999 166.298 3.55999L165.338 4.63999C165.338 4.63999 165.178 5.07999 164.858 5.96C164.698 6.52 164.378 6.75999 163.898 6.68C163.338 5.16 162.578 4.36 161.618 4.28C161.698 4.84 162.098 5.6 162.818 6.56C163.618 7.44 164.058 8.2 164.138 8.84C164.618 8.76 165.298 8.84 166.178 9.07999C166.258 8.52 167.218 7.28 169.058 5.36ZM197.618 72.8C194.498 73.36 188.218 74.04 178.778 74.84L178.418 74.6C176.498 76.84 174.658 79.4 172.898 82.28C172.898 82.28 172.738 82.24 172.418 82.16C172.578 80.72 173.698 78.44 175.778 75.32C174.498 75.72 172.458 77.16 169.658 79.64C169.258 80.04 168.938 80.12 168.698 79.88C170.538 77.4 172.738 75.24 175.298 73.4L174.818 71.6C174.738 70 174.858 63.36 175.178 51.68C175.258 50.16 175.458 47.16 175.778 42.68C176.018 38.84 176.138 35.8 176.138 33.56C176.138 27.08 175.138 21.84 173.138 17.84L171.338 15.68C169.658 14.48 167.658 13.88 165.338 13.88C163.418 13.88 161.658 14.28 160.058 15.08C155.578 17.08 153.338 21.08 153.338 27.08C153.338 31.24 153.658 37.52 154.298 45.92C154.938 54.32 155.258 60.6 155.258 64.76L155.378 82.52L155.858 86.72C156.178 89.28 158.098 91.4 161.618 93.08C165.138 94.76 169.338 95.6 174.218 95.6C176.058 95.6 179.738 95.36 185.258 94.88C189.898 94.48 193.578 94.4 196.298 94.64C195.418 92.08 194.978 89.24 194.978 86.12C194.978 81.48 195.858 77.04 197.618 72.8ZM202.778 73.76C202.778 73.52 202.658 73.32 202.418 73.16C202.178 72.92 202.058 72.72 202.058 72.56C201.978 72.08 201.658 71.84 201.098 71.84C200.218 72.48 199.258 74 198.218 76.4C197.338 80.16 196.898 83.48 196.898 86.36C196.898 89.8 197.578 92.64 198.938 94.88C199.258 95.12 199.778 94.92 200.498 94.28C202.578 90.68 203.618 86.36 203.618 81.32C203.618 78.68 203.338 76.16 202.778 73.76ZM201.458 76.52C201.458 77.16 201.178 77.28 200.618 76.88C200.218 76.56 200.178 75.92 200.498 74.96C200.498 74.72 200.778 74.52 201.338 74.36C201.898 74.68 201.938 75.4 201.458 76.52ZM202.418 79.16C202.898 80.52 202.818 82.28 202.178 84.44C201.698 84.76 201.338 84.84 201.098 84.68C199.978 83.8 199.778 81.52 200.498 77.84C200.498 77.68 200.978 77.6 201.938 77.6L202.418 79.16ZM199.298 78.44C199.378 79.48 199.178 80.84 198.698 82.52C198.378 82.68 198.178 82.68 198.098 82.52C198.018 82.28 197.978 82.04 197.978 81.8C197.978 80.92 198.178 79.68 198.578 78.08C198.898 78 199.138 78.12 199.298 78.44ZM202.058 86.36C202.058 87.24 201.938 87.92 201.698 88.4C201.378 88.4 201.058 88.12 200.738 87.56C200.738 87.16 200.858 86.6 201.098 85.88C201.338 85.88 201.658 86.04 202.058 86.36ZM200.138 86.6C200.298 87.48 200.458 88.4 200.618 89.36C200.698 90.48 200.418 91.32 199.778 91.88C199.138 91.8 198.698 91.44 198.458 90.8C197.738 88.8 197.858 87 198.818 85.4C199.618 85.32 200.058 85.72 200.138 86.6ZM201.338 78.2C200.698 80.68 200.618 82.6 201.098 83.96C202.138 81.64 202.218 79.72 201.338 78.2ZM199.298 91.16C199.938 90.12 199.938 88.52 199.298 86.36C198.738 88.52 198.738 90.12 199.298 91.16ZM288.642 80.36C288.002 83.72 285.842 86.2 282.162 87.8C280.482 88.6 278.642 89 276.642 89C273.122 89 270.202 88 267.882 86C265.562 83.92 263.882 80.92 262.842 77C260.682 77 257.482 76.92 253.242 76.76C250.202 76.68 245.362 76.76 238.722 77C238.402 78.68 237.802 81.08 236.922 84.2C235.322 86.76 232.762 88.36 229.242 89C227.242 89.48 224.162 89.64 220.002 89.48C216.402 88.84 214.482 88.48 214.242 88.4C212.162 87.84 210.442 87 209.082 85.88C208.362 84.68 208.122 83.72 208.362 83C211.002 74.68 213.442 67.48 215.682 61.4L222.162 42.92C222.242 42.76 223.842 37.52 226.962 27.2C228.882 20.96 230.882 15.96 232.962 12.2C236.642 5.48 241.962 2.12 248.922 2.12C253.322 2.12 257.042 3.44 260.082 6.08L262.602 8.24C263.722 9.51999 265.362 12.56 267.522 17.36L272.922 34.52C274.922 40.68 276.922 45.84 278.922 50C279.642 50.16 280.642 50.56 281.922 51.2C283.042 52.96 283.362 56.64 282.882 62.24C284.162 65.12 285.442 68 286.722 70.88C288.082 74.32 288.722 77.48 288.642 80.36ZM283.722 92C283.882 93.36 283.522 94.08 282.642 94.16C282.322 94.16 281.802 94.08 281.082 93.92C280.842 94.56 280.562 95.24 280.242 95.96C280.002 96.6 279.562 97 278.922 97.16C278.362 97.32 277.922 96.92 277.602 95.96V95.84C275.922 97.28 274.882 98 274.482 98C274.242 98 273.922 97.92 273.522 97.76C273.202 97.52 272.922 96.84 272.682 95.72C273.082 93.08 274.282 91.04 276.282 89.6C276.682 89.6 277.122 89.76 277.602 90.08C277.842 90.24 278.082 90.32 278.322 90.32C278.642 90.32 279.082 90.16 279.642 89.84C280.282 89.44 280.762 89.24 281.082 89.24C281.482 89.24 281.842 89.44 282.162 89.84L283.722 92ZM281.682 57.8C281.602 56.76 281.482 55.68 281.322 54.56C281.242 53.44 280.802 52.64 280.002 52.16C279.442 52.24 278.722 52.76 277.842 53.72C275.042 57.64 273.322 62 272.682 66.8C272.122 70.8 272.442 73.76 273.642 75.68C274.442 75.76 275.162 75.4 275.802 74.6C276.442 73.8 277.042 73 277.602 72.2C280.002 67.08 281.362 62.28 281.682 57.8ZM254.322 50.72C253.282 48.08 251.722 44.16 249.642 38.96L246.282 49.76C247.962 50.24 250.642 50.56 254.322 50.72ZM277.122 50.48C274.802 44.16 272.482 38.04 270.162 32.12C268.962 28.44 267.722 24.76 266.442 21.08C265.002 16.76 263.442 13.24 261.762 10.52C258.802 6.44 255.162 4.36 250.842 4.28C250.122 4.12 249.402 4.03999 248.682 4.03999C245.082 4.03999 241.322 5.96 237.402 9.8C234.522 13.56 231.762 19.56 229.122 27.8L223.242 46.04C222.362 48.6 220.282 54.24 217.002 62.96C214.282 69.84 212.362 75.56 211.242 80.12C212.362 79.72 214.082 79.2 216.402 78.56C217.602 78.4 218.842 78.32 220.122 78.32C225.562 78.32 230.442 79.56 234.762 82.04C236.762 73.96 238.562 67.24 240.162 61.88L248.082 36.44L249.762 31.88H250.002C250.242 32.04 250.362 32.64 250.362 33.68C251.722 32.64 252.722 31.4 253.362 29.96C253.282 29.56 253.482 29.12 253.962 28.64C254.202 29.04 254.322 29.44 254.322 29.84C254.322 30.24 253.722 31.56 252.522 33.8C253.802 33.32 255.002 32.48 256.122 31.28C256.282 31.28 256.442 31.32 256.602 31.4C256.762 31.72 256.642 32.2 256.242 32.84C256.002 33.8 255.282 34.64 254.082 35.36C253.202 36 252.282 36.64 251.322 37.28C252.362 40.32 254.042 44.84 256.362 50.84C260.682 51.16 267.602 51.04 277.122 50.48ZM285.882 82.04C286.202 81 286.362 79.92 286.362 78.8C286.362 76.96 285.802 74.72 284.682 72.08C283.242 68.56 282.442 66.36 282.282 65.48C281.402 67.64 280.562 69.76 279.762 71.84C278.722 74.4 277.322 76.24 275.562 77.36C273.322 77.36 269.842 77.28 265.122 77.12C265.442 78.32 266.122 80 267.162 82.16C268.842 85.28 272.322 86.88 277.602 86.96C281.202 87.04 283.962 85.4 285.882 82.04ZM271.842 74.48V74.24V74.48ZM276.162 52.76C262.882 53.32 252.682 53.08 245.562 52.04C243.082 59.24 240.962 66.76 239.202 74.6L263.442 74.84L271.122 74.6C270.642 72.12 270.562 70.04 270.882 68.36C271.922 61.32 273.682 56.12 276.162 52.76ZM282.402 92C282.002 91.28 281.522 90.8 280.962 90.56C279.202 91.52 277.642 91.72 276.282 91.16C275.082 93 274.642 94.48 274.962 95.6C275.522 95.36 276.082 94.8 276.642 93.92C277.282 92.96 277.762 92.36 278.082 92.12C278.082 92.76 278.282 93.72 278.682 95C279.002 94.68 279.202 94.24 279.282 93.68C279.202 93.2 279.202 92.48 279.282 91.52C279.682 91.52 280.122 91.76 280.602 92.24C281.082 92.72 281.562 92.92 282.042 92.84C282.362 92.6 282.482 92.32 282.402 92ZM233.802 84.92C233.882 84.2 233.802 83.8 233.562 83.72C230.442 81.48 225.682 80.36 219.282 80.36C217.602 80.52 215.922 80.72 214.242 80.96C212.322 81.36 210.882 82.12 209.922 83.24L210.882 84.32C210.642 84.24 210.362 84.16 210.042 84.08C210.682 85.04 211.802 85.8 213.402 86.36C217.722 87.48 221.682 87.92 225.282 87.68C229.282 87.36 232.122 86.44 233.802 84.92ZM280.962 56.48C281.042 58.48 280.682 59.72 279.882 60.2C279.722 59.88 279.442 59.52 279.042 59.12C278.882 58.08 279.162 56.96 279.882 55.76C280.602 55.84 280.962 56.08 280.962 56.48ZM278.682 55.16C278.602 56.12 278.562 56.6 278.562 56.6C278.402 57.16 278.082 57.52 277.602 57.68C277.442 57.6 277.242 57.4 277.002 57.08C276.922 55.88 277.282 55.04 278.082 54.56C278.322 54.56 278.522 54.76 278.682 55.16ZM278.562 60.44C278.802 63.24 278.082 65.28 276.402 66.56C275.762 66.88 275.282 66.48 274.962 65.36C274.562 63.2 275.242 61.24 277.002 59.48C277.962 59.48 278.482 59.8 278.562 60.44ZM279.042 66.56C279.042 67.6 278.762 68.28 278.202 68.6C277.962 68.68 277.642 68.32 277.242 67.52C277.242 67.04 277.442 66.4 277.842 65.6C278.642 65.76 279.042 66.08 279.042 66.56ZM276.402 68.84C276.802 70.76 276.322 72.4 274.962 73.76C274.402 73.92 273.922 73.64 273.522 72.92C273.042 71.24 273.322 69.64 274.362 68.12C274.682 67.8 275.082 67.72 275.562 67.88C276.042 68.04 276.322 68.36 276.402 68.84ZM232.122 83.96C232.362 84.36 232.082 84.76 231.282 85.16C228.802 85.72 226.922 85.16 225.642 83.48C225.642 83.24 226.242 82.8 227.442 82.16C229.842 82.24 231.402 82.84 232.122 83.96ZM224.082 82.4C224.082 83.04 223.802 83.4 223.242 83.48C221.802 83.64 220.762 83.52 220.122 83.12C219.722 82.48 220.002 82 220.962 81.68C222.482 81.68 223.522 81.92 224.082 82.4ZM226.722 86C226.722 86.32 226.442 86.56 225.882 86.72C224.762 86.8 223.962 86.52 223.482 85.88C223.642 85.48 224.002 85.2 224.562 85.04C225.202 85.04 225.922 85.36 226.722 86ZM222.282 85.04C222.442 85.52 222.122 85.88 221.322 86.12C220.122 86.12 219.442 85.88 219.282 85.4C219.362 85 219.642 84.72 220.122 84.56C220.922 84.48 221.642 84.64 222.282 85.04ZM218.562 83.96C218.002 85 216.322 85.36 213.522 85.04C212.802 84.8 212.282 84.48 211.962 84.08C211.802 83.44 212.082 82.92 212.802 82.52C215.602 81.88 217.522 82.24 218.562 83.6V83.96ZM277.482 62.84C277.642 61.56 277.642 60.72 277.482 60.32C276.202 62.4 275.682 64.12 275.922 65.48C276.322 65.08 276.842 64.2 277.482 62.84ZM275.562 68.84H275.322C274.442 69.88 274.082 71.2 274.242 72.8C275.362 71.6 275.802 70.28 275.562 68.84ZM231.162 84.08C229.562 82.96 228.082 82.64 226.722 83.12C226.962 83.6 227.442 83.92 228.162 84.08C228.962 84.4 229.962 84.4 231.162 84.08ZM217.602 83.84C216.962 83.52 215.722 83.28 213.882 83.12C213.322 83.52 213.002 83.68 212.922 83.6C214.442 84.72 216.002 84.8 217.602 83.84ZM382.497 80.72C381.537 83.28 379.537 85 376.497 85.88C374.897 86.36 372.057 86.72 367.977 86.96C361.737 87.28 357.377 86.68 354.897 85.16C354.257 84.76 353.697 84.04 353.217 83C353.217 79.16 353.017 73.48 352.617 65.96C351.817 67.56 350.617 70 349.017 73.28C344.537 79.76 340.057 83 335.577 83C330.777 82.92 326.817 80.08 323.697 74.48C323.297 73.6 322.097 70.64 320.097 65.6L319.737 65.96C319.817 72.52 318.817 78 316.737 82.4C315.057 86.08 311.657 87.92 306.537 87.92C303.737 87.92 301.177 87.12 298.857 85.52C296.537 83.84 294.857 81.68 293.817 79.04C293.097 76.32 292.737 73.32 292.737 70.04C292.737 66.68 293.177 62.36 294.057 57.08C295.337 49.88 296.057 45.68 296.217 44.48L298.617 24.8C298.457 13.76 302.177 6.6 309.777 3.32C311.457 2.44 313.377 2 315.537 2C320.417 2 324.177 4.28 326.817 8.84C328.817 12.28 330.537 16.92 331.977 22.76C334.217 31.96 335.417 36.8 335.577 37.28C336.617 35.2 338.497 30.2 341.217 22.28C343.297 16.04 345.657 11.28 348.297 7.99999C351.177 4.4 355.137 2.6 360.177 2.6C362.017 2.6 363.817 2.88 365.577 3.43999C368.697 5.04 370.977 7.88 372.417 11.96C374.577 16.28 376.097 21.72 376.977 28.28C377.137 29.8 377.657 35.68 378.537 45.92C378.857 49.84 380.177 61.44 382.497 80.72ZM310.737 93.68C310.577 94.32 310.057 94.72 309.177 94.88C308.537 94.8 307.977 94.64 307.497 94.4C307.337 95.12 306.817 96.08 305.937 97.28C305.697 97.6 305.057 97.84 304.017 98C303.377 98 302.777 97.56 302.217 96.68L301.857 95C299.777 95.88 298.217 95.96 297.177 95.24C296.617 94.44 296.457 93.76 296.697 93.2C297.097 92.48 297.977 91.68 299.337 90.8C300.777 89.84 301.697 88.92 302.097 88.04C302.417 88.04 303.177 88.2 304.377 88.52C305.257 88.76 306.017 88.76 306.657 88.52C307.617 89.24 308.577 90 309.537 90.8C310.577 91.6 310.977 92.56 310.737 93.68ZM379.617 78.68V78.44L377.577 59.48L375.297 34.52C374.417 24.52 372.857 17.24 370.617 12.68C367.977 7.08 364.097 4.48 358.977 4.88C354.497 6 351.297 7.92 349.377 10.64C347.057 14 344.857 18.68 342.777 24.68C340.137 32.44 338.377 37.28 337.497 39.2C338.057 39.84 338.697 40.96 339.417 42.56C339.017 42.8 338.777 42.92 338.697 42.92C338.217 42.12 337.337 41.16 336.057 40.04C336.217 40.76 336.657 42.08 337.377 44C338.017 45.44 338.137 46.44 337.737 47C337.657 47 337.537 46.96 337.377 46.88C334.737 41.92 332.217 34 329.817 23.12C329.097 20.88 328.377 18.64 327.657 16.4C326.697 13.84 325.737 11.72 324.777 10.04C322.377 5.96 318.577 4.15999 313.377 4.63999L310.017 5.96C305.377 7.64 302.657 11.52 301.857 17.6L297.897 46.88C297.017 51.84 295.937 59.4 294.657 69.56C294.177 75.16 296.137 79.88 300.537 83.72C302.297 84.92 304.377 85.52 306.777 85.52C308.057 85.52 309.257 85.28 310.377 84.8C313.417 83.52 315.497 79.76 316.617 73.52C316.777 70.56 317.097 66.16 317.577 60.32C318.217 53.2 318.577 49.52 318.657 49.28C319.217 45.12 320.177 41.68 321.537 38.96C321.777 38.96 321.937 39.04 322.017 39.2C321.137 42.88 320.617 45.76 320.457 47.84C321.017 46.72 321.977 45.12 323.337 43.04C323.337 42.96 323.537 43.04 323.937 43.28C323.617 46.16 322.417 48.48 320.337 50.24C320.737 54.08 321.737 59.72 323.337 67.16C324.937 70.84 326.097 73.28 326.817 74.48C328.497 77.12 330.457 79 332.697 80.12C335.897 80.52 338.457 80.16 340.377 79.04C344.697 75.28 347.977 70.64 350.217 65.12L354.897 47.96C354.977 46.92 355.457 45.6 356.337 44C356.417 44 356.577 44.24 356.817 44.72C356.737 45.68 356.257 48.12 355.377 52.04C355.937 51.64 357.057 50.08 358.737 47.36H359.097C359.097 47.36 359.057 48.24 358.977 50C357.937 51.68 356.857 53.04 355.737 54.08C354.937 54.16 354.537 54.48 354.537 55.04C354.537 55.28 354.657 55.8 354.897 56.6C355.137 57.32 355.217 57.84 355.137 58.16C355.137 59.84 355.217 63.4 355.377 68.84C355.617 73.32 355.657 76.92 355.497 79.64L355.737 79.88C357.977 78.68 361.057 77.76 364.977 77.12C371.777 76.8 376.657 77.32 379.617 78.68ZM378.897 82.16C379.137 81.92 379.017 81.28 378.537 80.24C376.217 79.2 373.417 78.68 370.137 78.68C367.097 78.68 363.857 79.12 360.417 80C359.537 80.32 358.617 80.68 357.657 81.08C356.697 81.48 356.097 82.12 355.857 83C356.257 83.72 357.697 84.44 360.177 85.16C362.257 85.4 364.177 85.52 365.937 85.52C371.457 85.52 375.777 84.4 378.897 82.16ZM308.697 92.96C308.777 92.56 308.137 91.64 306.777 90.2C306.057 90.2 304.937 90.04 303.417 89.72C303.017 90.44 302.337 91.12 301.377 91.76C300.097 92.56 299.297 93.08 298.977 93.32C298.977 93.72 298.977 93.92 298.977 93.92C299.777 94.24 300.737 94.04 301.857 93.32C302.097 93.16 302.377 92.8 302.697 92.24C303.017 91.6 303.297 91.28 303.537 91.28C303.777 91.28 304.017 91.4 304.257 91.64C303.537 93.56 303.577 95.08 304.377 96.2C305.257 95.64 305.657 94.72 305.577 93.44C305.417 92.88 305.417 92.08 305.577 91.04C306.217 91.68 307.257 92.32 308.697 92.96ZM377.457 81.2C376.257 82.16 374.937 82.2 373.497 81.32C373.337 81 373.577 80.68 374.217 80.36C375.897 80.12 376.977 80.4 377.457 81.2ZM374.217 83C373.977 83.48 373.297 83.64 372.177 83.48C371.937 83.24 371.857 83.08 371.937 83C372.257 82.6 372.657 82.44 373.137 82.52C373.697 82.52 374.057 82.68 374.217 83ZM371.697 80.72C371.857 81.04 371.537 81.36 370.737 81.68C368.497 82.16 366.897 82.04 365.937 81.32C365.697 80.76 366.017 80.32 366.897 80C368.177 79.6 369.737 79.72 371.577 80.36L371.697 80.72ZM370.977 83C370.737 83.48 369.617 83.8 367.617 83.96C367.217 83.88 366.937 83.72 366.777 83.48C366.857 83.16 367.537 82.8 368.817 82.4C369.377 82.32 370.097 82.52 370.977 83ZM365.577 83C365.577 83.4 365.337 83.64 364.857 83.72C364.137 83.88 363.777 83.96 363.777 83.96C362.897 83.96 362.057 84 361.257 84.08C360.217 84 359.497 83.64 359.097 83C359.257 82.52 359.617 82.24 360.177 82.16C360.817 82 361.417 81.84 361.977 81.68C362.697 81.76 363.377 81.88 364.017 82.04C364.737 82.12 365.257 82.44 365.577 83ZM370.977 80.84C369.377 80.2 367.897 80.24 366.537 80.96C367.817 81.68 369.297 81.64 370.977 80.84ZM364.497 83C362.657 82.12 361.137 82.12 359.937 83C361.217 83.4 362.737 83.4 364.497 83ZM416.233 7.99999C415.033 18.88 414.513 31.4 414.673 45.56C414.673 48.12 414.913 51.84 415.393 56.72C415.873 61.6 416.113 65.32 416.113 67.88C416.113 76.44 413.633 82.6 408.673 86.36C405.633 88.04 401.673 88.48 396.793 87.68C390.473 85.52 387.233 79.52 387.073 69.68L386.953 61.52L387.793 39.32C388.193 29.4 388.433 18.32 388.513 6.08C388.913 4.96 390.873 3.8 394.393 2.6C396.713 2.2 399.073 2 401.473 2C406.033 2 409.873 2.76 412.993 4.28L415.273 5.84C415.753 6.48 416.073 7.19999 416.233 7.99999ZM405.793 97.16C404.913 98.04 403.713 98.24 402.193 97.76C400.913 97.2 399.993 96.44 399.433 95.48C398.553 96.44 397.433 96.88 396.073 96.8C395.433 96.72 394.913 96.2 394.513 95.24L394.753 93.92C394.273 93.68 393.833 93.2 393.433 92.48C393.353 91.36 393.873 90.56 394.993 90.08C396.513 89.44 397.433 88.92 397.753 88.52C397.833 88.76 398.113 88.88 398.593 88.88C399.153 88.88 399.513 88.92 399.673 89C400.233 88.92 400.993 89 401.953 89.24C401.793 90.36 402.553 91.48 404.233 92.6C405.913 93.64 406.753 94.52 406.753 95.24C406.753 95.8 406.433 96.44 405.793 97.16ZM413.953 7.52C412.353 5.99999 410.153 4.99999 407.353 4.51999C405.993 4.27999 403.433 4.11999 399.673 4.03999C397.273 4.28 395.633 4.48 394.753 4.63999C393.073 5.03999 391.673 5.67999 390.553 6.56C390.633 6.96 390.913 7.48 391.393 8.12C394.753 9.87999 398.793 10.76 403.513 10.76C405.193 10.76 406.913 10.64 408.673 10.4C409.873 10.24 411.473 9.59999 413.473 8.47999C413.793 8.39999 413.953 8.08 413.953 7.52ZM413.233 11.12L412.033 11.72C409.473 12.28 406.873 12.56 404.233 12.56C399.113 12.56 394.593 11.64 390.673 9.8L390.433 16.76L390.193 40.16L389.233 65.12L389.593 72.08C389.753 75.2 390.513 77.96 391.873 80.36C393.473 83.24 395.673 85.04 398.473 85.76C401.913 86 404.313 85.8 405.673 85.16C410.953 82.36 413.593 76.68 413.593 68.12C413.593 66.44 413.473 64.24 413.233 61.52C413.073 58.32 412.953 56.2 412.873 55.16L412.393 35.6L413.233 11.12ZM404.353 95.12C403.233 94.16 401.993 92.6 400.633 90.44C399.433 90.44 398.593 90.28 398.113 89.96L397.153 90.8C397.073 90.96 396.713 91.16 396.073 91.4C395.513 91.56 395.233 91.76 395.233 92C395.233 92.16 395.273 92.32 395.353 92.48C395.513 92.56 395.753 92.6 396.073 92.6C396.393 92.6 396.633 92.56 396.793 92.48C397.033 92.32 397.313 92 397.633 91.52C397.953 90.96 398.233 90.68 398.473 90.68C398.633 90.68 398.833 90.76 399.073 90.92C399.153 91.8 398.473 92.76 397.033 93.8C396.553 94.44 396.353 94.88 396.433 95.12C397.233 95.28 397.953 95.08 398.593 94.52C398.833 93.96 399.313 93.28 400.033 92.48C400.353 93.04 400.833 93.92 401.473 95.12C402.033 95.84 402.833 96.16 403.873 96.08C404.273 96.08 404.433 95.76 404.353 95.12ZM410.233 6.91999C410.233 7.4 409.793 7.8 408.913 8.12C408.033 8.03999 407.073 7.95999 406.033 7.87999C405.073 7.8 404.393 7.44 403.993 6.79999C403.993 6.32 404.193 6.04 404.593 5.96C405.073 5.79999 405.553 5.67999 406.033 5.6C406.753 5.67999 407.513 5.76 408.313 5.84C409.193 5.92 409.833 6.28 410.233 6.91999ZM403.393 6.19999C403.153 6.76 402.873 7.08 402.553 7.16C401.913 7.24 401.273 7 400.633 6.44C400.473 6.12 400.793 5.84 401.593 5.6C402.073 5.6 402.673 5.79999 403.393 6.19999ZM406.273 9.2C406.273 9.28 406.033 9.56 405.553 10.04C403.313 10.28 401.953 9.96 401.473 9.07999C401.873 8.99999 402.433 8.88 403.153 8.72C403.953 8.63999 404.993 8.79999 406.273 9.2ZM400.993 7.76C400.753 8.56 400.153 9.08 399.193 9.32C396.313 9.4 394.433 8.92 393.553 7.87999C393.553 7.32 393.833 6.96 394.393 6.79999C394.953 6.64 395.473 6.48 395.953 6.31999C398.113 6.08 399.793 6.56 400.993 7.76ZM409.393 7.16C408.033 6.44 406.593 6.28 405.073 6.68L405.313 7.04C407.953 7.12 409.313 7.16 409.393 7.16ZM400.273 8.12C399.393 7.24 397.993 6.88 396.073 7.04C395.673 7.12 395.193 7.28 394.633 7.52C396.793 8.64 398.673 8.84 400.273 8.12Z" fill="#FF2D2D"/>
</svg>
